<svg version="1.1" xmlns="http://www.w3.org/2000/svg" xmlns:xlink="http://www.w3.org/1999/xlink" width="195.48707" height="199.10438" viewBox="0,0,195.48707,199.10438"><defs><radialGradient cx="204.91821" cy="144.51498" r="47.79806" gradientUnits="userSpaceOnUse" id="color-1"><stop offset="0" stop-color="#ffa0a0" stop-opacity="0"/><stop offset="1" stop-color="#ffa0a0"/></radialGradient><radialGradient cx="273.09936" cy="142.32843" r="47.79806" gradientUnits="userSpaceOnUse" id="color-2"><stop offset="0" stop-color="#a1aaff" stop-opacity="0"/><stop offset="1" stop-color="#a1aaff"/></radialGradient><radialGradient cx="200.94418" cy="216.42439" r="47.79806" gradientUnits="userSpaceOnUse" id="color-3"><stop offset="0" stop-color="#fff3a1" stop-opacity="0"/><stop offset="1" stop-color="#fff3a1"/></radialGradient><radialGradient cx="275.87487" cy="220.52294" r="47.79806" gradientUnits="userSpaceOnUse" id="color-4"><stop offset="0" stop-color="#b0ffa1" stop-opacity="0"/><stop offset="1" stop-color="#b0ffa1"/></radialGradient><radialGradient cx="240" cy="180.00001" r="47.79806" gradientUnits="userSpaceOnUse" id="color-5"><stop offset="0" stop-color="#daa1ff" stop-opacity="0"/><stop offset="1" stop-color="#daa1ff"/></radialGradient></defs><g transform="translate(-140.64507,-81.87349)"><g data-paper-data="{&quot;isPaintingLayer&quot;:true}" fill="none" fill-rule="nonzero" stroke-width="25" stroke-linecap="butt" stroke-linejoin="miter" stroke-miterlimit="10" stroke-dasharray="" stroke-dashoffset="0" style="mix-blend-mode: normal"><path d="M252.67548,146.48924c-1.09392,26.46191 -23.36238,47.0296 -49.73798,45.93925c-26.3756,-1.09035 -46.87048,-23.42585 -45.77657,-49.88775c1.09392,-26.4619 23.36239,-47.02961 49.73799,-45.93926c26.3756,1.09035 46.87048,23.42586 45.77656,49.88777z" stroke="url(#color-1)"/><path d="M320.85664,144.30268c-1.09392,26.46191 -23.36238,47.0296 -49.73798,45.93925c-26.3756,-1.09035 -46.87048,-23.42584 -45.77656,-49.88775c1.09392,-26.4619 23.36239,-47.02961 49.73799,-45.93926c26.3756,1.09035 46.87048,23.42586 45.77655,49.88776z" stroke="url(#color-2)"/><path d="M248.70145,218.39864c-1.09392,26.46191 -23.36238,47.0296 -49.73798,45.93925c-26.3756,-1.09035 -46.87048,-23.42585 -45.77657,-49.88775c1.09392,-26.4619 23.36239,-47.02961 49.73799,-45.93926c26.3756,1.09035 46.87048,23.42586 45.77656,49.88777z" stroke="url(#color-3)"/><path d="M323.63214,222.4972c-1.09392,26.46191 -23.36238,47.0296 -49.73798,45.93925c-26.3756,-1.09035 -46.87048,-23.42585 -45.77657,-49.88775c1.09392,-26.4619 23.36239,-47.0296 49.73799,-45.93925c26.3756,1.09035 46.87048,23.42586 45.77656,49.88777z" stroke="url(#color-4)"/><path d="M287.75727,181.97426c-1.09392,26.46191 -23.36239,47.0296 -49.73799,45.93924c-26.3756,-1.09035 -46.87048,-23.42584 -45.77656,-49.88775c1.09392,-26.4619 23.36239,-47.02961 49.73799,-45.93926c26.3756,1.09035 46.87048,23.42586 45.77656,49.88777z" stroke="url(#color-5)"/></g></g></svg>